<svg width="125" height="71" viewBox="0 0 125 71" fill="none" xmlns="http://www.w3.org/2000/svg">
<mask id="mask0_188_676" style="mask-type:alpha" maskUnits="userSpaceOnUse" x="1" y="0" width="123" height="71">
<g clip-path="url(#clip0_188_676)">
<path fill-rule="evenodd" clip-rule="evenodd" d="M44.0879 32.6031V0.000671387H47.1689V32.6031H44.0879Z" fill="#BFBAB0"/>
<path fill-rule="evenodd" clip-rule="evenodd" d="M47.1797 29.5338H66.1747V32.6034H47.1797V29.5338Z" fill="#BFBAB0"/>
<path fill-rule="evenodd" clip-rule="evenodd" d="M50.3374 39.285V6.68256H53.4184V39.285H50.3374Z" fill="#8C877D"/>
<path fill-rule="evenodd" clip-rule="evenodd" d="M53.4282 36.2148H72.4233V39.2844H53.4282V36.2148Z" fill="#8C877D"/>
<path fill-rule="evenodd" clip-rule="evenodd" d="M58.7017 23.8578L78.1444 0.000671387H82.1207L60.7118 26.2715L58.7017 23.8578Z" fill="#8FB6D9"/>
<path fill-rule="evenodd" clip-rule="evenodd" d="M60.6854 21.4265L82.1382 47.1901H78.1268L58.7017 23.8576L60.6854 21.4265Z" fill="#8FB6D9"/>
<path d="M1.25244 53.1717H2.62177V59.3809H6.49275V60.5352H1.25244V53.163V53.1717Z" fill="#8C877D"/>
<path d="M9.94385 56.8465C9.94385 54.6689 11.638 53.0598 13.9289 53.0598C16.2199 53.0598 17.914 54.6601 17.914 56.8465C17.914 59.0328 16.2199 60.6332 13.9289 60.6332C11.638 60.6332 9.94385 59.024 9.94385 56.8465ZM16.5272 56.8465C16.5272 55.3423 15.4212 54.2579 13.9289 54.2579C12.4367 54.2579 11.3307 55.3423 11.3307 56.8465C11.3307 58.3507 12.4367 59.4351 13.9289 59.4351C15.4212 59.4351 16.5272 58.3507 16.5272 56.8465Z" fill="#8C877D"/>
<path d="M27.1564 60.5356L25.6466 58.3755C25.55 58.3843 25.4535 58.3843 25.3657 58.3843H23.6979V60.5356H22.3286V53.1633H25.3745C27.3144 53.1633 28.5257 54.1515 28.5257 55.7869C28.5257 56.9063 27.9551 57.7196 26.9545 58.1132L28.6574 60.5356H27.1739H27.1564ZM25.2955 54.3265H23.6892V57.2649H25.2955C26.498 57.2649 27.1213 56.7139 27.1213 55.7869C27.1213 54.8599 26.498 54.3265 25.2955 54.3265Z" fill="#8C877D"/>
<path d="M38.4694 59.3896V60.5352H32.9219V53.163H38.3202V54.3086H34.2912V56.2238H37.8637V57.352H34.2912V59.3809H38.4694V59.3896Z" fill="#8C877D"/>
<path d="M49.511 53.1718V60.5441H48.3787L44.2971 55.5505V60.5441H42.9365V53.1718H44.0688L48.1505 58.1654V53.1718H49.511Z" fill="#8C877D"/>
<path d="M60.0988 59.3812V60.5356H53.7876V59.6174L58.1414 54.3177H53.8578V53.1633H59.9584V54.0816L55.6046 59.3812H60.0988Z" fill="#8C877D"/>
<path d="M72.7257 57.457L71.5495 58.6551V60.5441H70.1802V53.1718H71.5495V56.9498L75.2098 53.1718H76.7547L73.6474 56.4688L76.9478 60.5441H75.3415L72.7345 57.457H72.7257Z" fill="#8C877D"/>
<path d="M85.5945 58.8303H81.8991L81.1705 60.5356H79.7573L83.0841 53.1633H84.4359L87.7714 60.5356H86.3319L85.5945 58.8303ZM85.1381 57.7546L83.7424 54.5363L82.3555 57.7546H85.1381Z" fill="#8C877D"/>
<path d="M91.5693 53.1718H92.9474V60.5441H91.5693V53.1718Z" fill="#8C877D"/>
<path d="M97.2627 59.7568L97.7367 58.6899C98.3248 59.1621 99.2728 59.5032 100.177 59.5032C101.327 59.5032 101.818 59.0921 101.818 58.5412C101.818 56.9495 97.4207 57.9902 97.4207 55.2529C97.4207 54.0636 98.3687 53.0491 100.405 53.0491C101.292 53.0491 102.222 53.2765 102.863 53.705L102.433 54.772C101.766 54.3784 101.037 54.1948 100.396 54.1948C99.2552 54.1948 98.79 54.6408 98.79 55.1917C98.79 56.7571 103.179 55.7427 103.179 58.445C103.179 59.6256 102.213 60.6313 100.186 60.6313C99.0358 60.6313 97.8859 60.2727 97.2715 59.748L97.2627 59.7568Z" fill="#8C877D"/>
<path d="M112.946 59.39V60.5356H107.398V53.1633H112.797V54.309H108.768V56.2242H112.34V57.3523H108.768V59.3812H112.937L112.946 59.39Z" fill="#8C877D"/>
<path d="M122.25 60.5352L120.74 58.3752C120.643 58.3839 120.547 58.3839 120.45 58.3839H118.782V60.5352H117.413V53.163H120.459C122.408 53.163 123.61 54.1512 123.61 55.7866C123.61 56.906 123.04 57.7193 122.039 58.1128L123.742 60.5352H122.258H122.25ZM120.389 54.3261H118.782V57.2645H120.389C121.591 57.2645 122.215 56.7136 122.215 55.7866C122.215 54.8596 121.591 54.3261 120.389 54.3261Z" fill="#8C877D"/>
<path d="M44.3024 69.2006H42.2484L41.8095 70.1801H41.4058L43.0911 66.4983H43.4773L45.1626 70.1801H44.7501L44.3112 69.2006H44.3024ZM44.162 68.8858L43.2754 66.9093L42.3889 68.8858H44.162Z" fill="#8C877D"/>
<path d="M49.6769 70.1989L48.8343 69.0182C48.7377 69.027 48.6412 69.0357 48.5358 69.0357H47.5439V70.1989H47.1577V66.5171H48.5446C49.4838 66.5171 50.0544 66.9893 50.0544 67.7764C50.0544 68.3536 49.7472 68.7559 49.2117 68.9308L50.1158 70.1901H49.6857L49.6769 70.1989ZM49.6594 67.7764C49.6594 67.1905 49.2732 66.8494 48.527 66.8494H47.5439V68.6947H48.527C49.2644 68.6947 49.6594 68.3536 49.6594 67.7764Z" fill="#8C877D"/>
<path d="M51.9932 68.3536C51.9932 67.2779 52.8183 66.4821 53.933 66.4821C54.4685 66.4821 54.96 66.657 55.2848 67.0155L55.039 67.2604C54.7406 66.9543 54.3719 66.8231 53.9506 66.8231C53.0553 66.8231 52.3882 67.479 52.3882 68.3448C52.3882 69.2106 53.0553 69.8665 53.9506 69.8665C54.3719 69.8665 54.7406 69.7353 55.039 69.4292L55.2848 69.6741C54.96 70.0326 54.4685 70.2163 53.933 70.2163C52.827 70.2163 52.0019 69.4205 52.0019 68.3448L51.9932 68.3536Z" fill="#8C877D"/>
<path d="M60.5947 66.5165V70.1982H60.2084V68.5017H57.8999V70.1982H57.5137V66.5165H57.8999V68.1606H60.2084V66.5165H60.5947Z" fill="#8C877D"/>
<path d="M63.2036 66.517H63.5898V70.1988H63.2036V66.517Z" fill="#8C877D"/>
<path d="M66.8987 66.8584H65.5996V66.5261H68.584V66.8584H67.2849V70.1991H66.8899V66.8584H66.8987Z" fill="#8C877D"/>
<path d="M73.2183 69.858V70.1904H70.6025V66.5086H73.1393V66.8409H70.9975V68.1527H72.9111V68.485H70.9975V69.8493H73.2183V69.858Z" fill="#8C877D"/>
<path d="M76.7075 68.467L75.9526 69.2279V70.1986H75.5664V66.5168H75.9526V68.7382L78.1207 66.5168H78.5684L76.9708 68.1872L78.6825 70.1986H78.2173L76.7075 68.467Z" fill="#8C877D"/>
<path d="M81.4182 66.8587H80.1191V66.5264H83.1036V66.8587H81.8045V70.1995H81.4095V66.8587H81.4182Z" fill="#8C877D"/>
</g>
</mask>
<g mask="url(#mask0_188_676)">
<rect width="241.573" height="140.449" fill="#B6B6B6"/>
<rect width="241.573" height="70.2247" fill="url(#paint0_linear_188_676)"/>
</g>
<defs>
<linearGradient id="paint0_linear_188_676" x1="0" y1="35.1124" x2="241.573" y2="35.1124" gradientUnits="userSpaceOnUse">
<stop stop-color="#181818" stop-opacity="0"/>
<stop offset="1" stop-color="#181818"/>
</linearGradient>
<clipPath id="clip0_188_676">
<rect width="122.52" height="70.2247" fill="white" transform="translate(1.4043)"/>
</clipPath>
</defs>
</svg>
