<svg width="48" height="41" viewBox="0 0 48 41" fill="none" xmlns="http://www.w3.org/2000/svg">
<rect width="48" height="41" rx="5" fill="#111111"/>
<path d="M15.04 12.08C16.816 12.08 18.368 12.44 19.696 13.16C21.04 13.864 22.072 14.856 22.792 16.136C23.512 17.416 23.872 18.88 23.872 20.528C23.872 22.16 23.504 23.616 22.768 24.896C22.048 26.176 21.016 27.184 19.672 27.92C18.344 28.64 16.8 29 15.04 29H8.344V12.08H15.04ZM14.68 24.848C16.056 24.848 17.136 24.472 17.92 23.72C18.704 22.968 19.096 21.904 19.096 20.528C19.096 19.136 18.704 18.064 17.92 17.312C17.136 16.544 16.056 16.16 14.68 16.16H13.048V24.848H14.68Z" fill="white"/>
<path d="M34.912 29L31.552 22.76H31.048V29H26.344V12.08H33.76C35.12 12.08 36.272 12.32 37.216 12.8C38.16 13.264 38.872 13.912 39.352 14.744C39.832 15.56 40.072 16.48 40.072 17.504C40.072 18.656 39.752 19.672 39.112 20.552C38.488 21.416 37.568 22.032 36.352 22.4L40.168 29H34.912ZM31.048 19.544H33.376C34.016 19.544 34.496 19.392 34.816 19.088C35.136 18.784 35.296 18.344 35.296 17.768C35.296 17.224 35.128 16.8 34.792 16.496C34.472 16.176 34 16.016 33.376 16.016H31.048V19.544Z" fill="white"/>
</svg>
