<svg xmlns="http://www.w3.org/2000/svg" version="1.1" xmlns:xlink="http://www.w3.org/1999/xlink" width="509" height="512"><svg width="509" height="512" viewBox="0 0 509 512" fill="none" xmlns="http://www.w3.org/2000/svg">
<rect width="508.333" height="512" rx="53.3333" fill="#232323"></rect>
<path d="M160.427 165.52C179.371 165.52 195.926 169.36 210.091 177.04C224.427 184.549 235.435 195.131 243.115 208.784C250.795 222.437 254.635 238.053 254.635 255.632C254.635 273.04 250.71 288.571 242.859 302.224C235.179 315.877 224.171 326.629 209.835 334.48C195.67 342.16 179.2 346 160.427 346H89.003V165.52H160.427ZM156.587 301.712C171.264 301.712 182.784 297.701 191.147 289.68C199.51 281.659 203.691 270.309 203.691 255.632C203.691 240.784 199.51 229.349 191.147 221.328C182.784 213.136 171.264 209.04 156.587 209.04H139.179V301.712H156.587Z" fill="white"></path>
<path d="M369.395 346L333.555 279.44H328.179V346H278.003V165.52H357.107C371.614 165.52 383.902 168.08 393.971 173.2C404.04 178.149 411.635 185.061 416.755 193.936C421.875 202.64 424.435 212.453 424.435 223.376C424.435 235.664 421.022 246.501 414.195 255.888C407.539 265.104 397.726 271.675 384.755 275.6L425.459 346H369.395ZM328.179 245.136H353.011C359.838 245.136 364.958 243.515 368.371 240.272C371.784 237.029 373.491 232.336 373.491 226.192C373.491 220.389 371.699 215.867 368.115 212.624C364.702 209.211 359.667 207.504 353.011 207.504H328.179V245.136Z" fill="white"></path>
</svg><style>@media (prefers-color-scheme: light) { :root { filter: none; } }
@media (prefers-color-scheme: dark) { :root { filter: none; } }
</style></svg>