<svg width="24" height="24" viewBox="0 0 24 24" fill="none" xmlns="http://www.w3.org/2000/svg">
<g clip-path="url(#clip0_281_446)">
<rect width="24" height="24" rx="5" fill="#1E1E1E"/>
<rect width="24" height="24" rx="5" fill="url(#paint0_radial_281_446)" fill-opacity="0.2"/>
<g clip-path="url(#clip1_281_446)">
<path d="M12 12C12 10.6193 13.1191 9.5 14.4995 9.5C15.8799 9.5 16.999 10.6193 16.999 12C16.999 13.3807 15.8799 14.5 14.4995 14.5C13.1191 14.5 12 13.3807 12 12Z" fill="#1ABCFE"/>
<path d="M7.00098 17C7.00098 15.6193 8.12003 14.5 9.50048 14.5H12V17C12 18.3807 10.8809 19.5 9.50048 19.5C8.12003 19.5 7.00098 18.3807 7.00098 17Z" fill="#0ACF83"/>
<path d="M12 4.5V9.49996H14.4995C15.8799 9.49996 16.999 8.38069 16.999 6.99996C16.999 5.61924 15.8799 4.5 14.4995 4.5H12Z" fill="#FF7262"/>
<path d="M7.00098 7C7.00098 8.38072 8.12003 9.5 9.50048 9.5H12V4.5H9.50048C8.12003 4.5 7.00098 5.61931 7.00098 7Z" fill="#F24E1E"/>
<path d="M7.00098 12C7.00098 13.3807 8.12003 14.5 9.50048 14.5H12V9.5H9.50048C8.12003 9.5 7.00098 10.6193 7.00098 12Z" fill="#A259FF"/>
</g>
</g>
<defs>
<radialGradient id="paint0_radial_281_446" cx="0" cy="0" r="1" gradientUnits="userSpaceOnUse" gradientTransform="translate(12) rotate(90) scale(24)">
<stop stop-color="white"/>
<stop offset="1" stop-color="#999999" stop-opacity="0.1"/>
</radialGradient>
<clipPath id="clip0_281_446">
<rect width="24" height="24" rx="5" fill="white"/>
</clipPath>
<clipPath id="clip1_281_446">
<rect width="10" height="15" fill="white" transform="translate(7 4.5)"/>
</clipPath>
</defs>
</svg>
