<svg width="24" height="24" viewBox="0 0 24 24" fill="none" xmlns="http://www.w3.org/2000/svg">
<rect width="24" height="24" rx="5" fill="#1E1E1E"/>
<rect width="24" height="24" rx="5" fill="url(#paint0_radial_302_568)" fill-opacity="0.2"/>
<rect x="4.5" y="4.5" width="15" height="15" rx="3.21429" fill="url(#paint1_radial_302_568)"/>
<rect x="4.5" y="4.5" width="15" height="15" rx="3.21429" fill="url(#paint2_radial_302_568)"/>
<rect x="4.5" y="4.5" width="15" height="15" rx="3.21429" fill="url(#paint3_radial_302_568)"/>
<path d="M15.7502 9.05354C15.7502 9.49734 15.3904 9.85711 14.9466 9.85711C14.5028 9.85711 14.1431 9.49734 14.1431 9.05354C14.1431 8.60974 14.5028 8.24997 14.9466 8.24997C15.3904 8.24997 15.7502 8.60974 15.7502 9.05354Z" fill="white"/>
<path fill-rule="evenodd" clip-rule="evenodd" d="M12.0002 14.6785C13.4795 14.6785 14.6788 13.4793 14.6788 12C14.6788 10.5206 13.4795 9.32139 12.0002 9.32139C10.5209 9.32139 9.32164 10.5206 9.32164 12C9.32164 13.4793 10.5209 14.6785 12.0002 14.6785ZM12.0002 13.6071C12.8878 13.6071 13.6074 12.8876 13.6074 12C13.6074 11.1124 12.8878 10.3928 12.0002 10.3928C11.1126 10.3928 10.3931 11.1124 10.3931 12C10.3931 12.8876 11.1126 13.6071 12.0002 13.6071Z" fill="white"/>
<path fill-rule="evenodd" clip-rule="evenodd" d="M6.64307 11.7857C6.64307 9.98551 6.64307 9.08543 6.9934 8.39785C7.30157 7.79305 7.79329 7.30132 8.3981 6.99316C9.08567 6.64282 9.98575 6.64282 11.7859 6.64282H12.2145C14.0147 6.64282 14.9147 6.64282 15.6023 6.99316C16.2071 7.30132 16.6989 7.79305 17.007 8.39785C17.3574 9.08543 17.3574 9.98551 17.3574 11.7857V12.2143C17.3574 14.0144 17.3574 14.9145 17.007 15.6021C16.6989 16.2069 16.2071 16.6986 15.6023 17.0068C14.9147 17.3571 14.0147 17.3571 12.2145 17.3571H11.7859C9.98575 17.3571 9.08567 17.3571 8.3981 17.0068C7.79329 16.6986 7.30157 16.2069 6.9934 15.6021C6.64307 14.9145 6.64307 14.0144 6.64307 12.2143V11.7857ZM11.7859 7.71425H12.2145C13.1323 7.71425 13.7561 7.71508 14.2384 7.75448C14.7081 7.79286 14.9483 7.86243 15.1159 7.94781C15.5191 8.15325 15.8469 8.48107 16.0524 8.88427C16.1377 9.05184 16.2073 9.29206 16.2457 9.76179C16.2851 10.244 16.2859 10.8679 16.2859 11.7857V12.2143C16.2859 13.132 16.2851 13.7559 16.2457 14.2381C16.2073 14.7079 16.1377 14.9481 16.0524 15.1157C15.8469 15.5189 15.5191 15.8467 15.1159 16.0521C14.9483 16.1375 14.7081 16.2071 14.2384 16.2454C13.7561 16.2848 13.1323 16.2857 12.2145 16.2857H11.7859C10.8682 16.2857 10.2443 16.2848 9.76204 16.2454C9.2923 16.2071 9.05209 16.1375 8.88452 16.0521C8.48131 15.8467 8.1535 15.5189 7.94805 15.1157C7.86267 14.9481 7.79311 14.7079 7.75473 14.2381C7.71533 13.7559 7.71449 13.132 7.71449 12.2143V11.7857C7.71449 10.8679 7.71533 10.244 7.75473 9.76179C7.79311 9.29206 7.86267 9.05184 7.94805 8.88427C8.1535 8.48107 8.48131 8.15325 8.88452 7.94781C9.05209 7.86243 9.2923 7.79286 9.76204 7.75448C10.2443 7.71508 10.8682 7.71425 11.7859 7.71425Z" fill="white"/>
<defs>
<radialGradient id="paint0_radial_302_568" cx="0" cy="0" r="1" gradientUnits="userSpaceOnUse" gradientTransform="translate(12) rotate(90) scale(24)">
<stop stop-color="white"/>
<stop offset="1" stop-color="#999999" stop-opacity="0.1"/>
</radialGradient>
<radialGradient id="paint1_radial_302_568" cx="0" cy="0" r="1" gradientUnits="userSpaceOnUse" gradientTransform="translate(9.85714 15.75) rotate(-55.3758) scale(13.6712)">
<stop stop-color="#B13589"/>
<stop offset="0.79309" stop-color="#C62F94"/>
<stop offset="1" stop-color="#8A3AC8"/>
</radialGradient>
<radialGradient id="paint2_radial_302_568" cx="0" cy="0" r="1" gradientUnits="userSpaceOnUse" gradientTransform="translate(9.32143 20.0357) rotate(-65.1363) scale(12.1041)">
<stop stop-color="#E0E8B7"/>
<stop offset="0.444662" stop-color="#FB8A2E"/>
<stop offset="0.71474" stop-color="#E2425C"/>
<stop offset="1" stop-color="#E2425C" stop-opacity="0"/>
</radialGradient>
<radialGradient id="paint3_radial_302_568" cx="0" cy="0" r="1" gradientUnits="userSpaceOnUse" gradientTransform="translate(3.69643 5.03571) rotate(-8.1301) scale(20.8344 4.45626)">
<stop offset="0.156701" stop-color="#406ADC"/>
<stop offset="0.467799" stop-color="#6A45BE"/>
<stop offset="1" stop-color="#6A45BE" stop-opacity="0"/>
</radialGradient>
</defs>
</svg>
