<svg width="24" height="24" viewBox="0 0 24 24" fill="none" xmlns="http://www.w3.org/2000/svg">
<rect width="24" height="24" rx="5" fill="#1E1E1E"/>
<rect width="24" height="24" rx="5" fill="url(#paint0_radial_302_573)" fill-opacity="0.2"/>
<rect x="4.5" y="4.5" width="15" height="15" rx="7.5" fill="#1275B1"/>
<path d="M10.1885 8.62086C10.1885 9.12151 9.75456 9.52737 9.21926 9.52737C8.68395 9.52737 8.25 9.12151 8.25 8.62086C8.25 8.12021 8.68395 7.71436 9.21926 7.71436C9.75456 7.71436 10.1885 8.12021 10.1885 8.62086Z" fill="white"/>
<path d="M8.38255 10.1937H10.0394V15.2144H8.38255V10.1937Z" fill="white"/>
<path d="M12.7069 10.1937H11.0501V15.2144H12.7069C12.7069 15.2144 12.7069 13.6338 12.7069 12.6455C12.7069 12.0524 12.9095 11.4566 13.7176 11.4566C14.6309 11.4566 14.6254 12.2329 14.6211 12.8342C14.6156 13.6203 14.6289 14.4225 14.6289 15.2144H16.2857V12.5646C16.2717 10.8726 15.8308 10.093 14.3803 10.093C13.519 10.093 12.985 10.484 12.7069 10.8378V10.1937Z" fill="white"/>
<defs>
<radialGradient id="paint0_radial_302_573" cx="0" cy="0" r="1" gradientUnits="userSpaceOnUse" gradientTransform="translate(12) rotate(90) scale(24)">
<stop stop-color="white"/>
<stop offset="1" stop-color="#999999" stop-opacity="0.1"/>
</radialGradient>
</defs>
</svg>
