<svg width="22" height="18" viewBox="0 0 22 18" fill="none" xmlns="http://www.w3.org/2000/svg">
<path d="M19.5 1H2.5C1.67157 1 1 1.67157 1 2.5V15.5C1 16.3284 1.67157 17 2.5 17H19.5C20.3284 17 21 16.3284 21 15.5V2.5C21 1.67157 20.3284 1 19.5 1Z" stroke="white" stroke-width="2" stroke-linejoin="round"/>
<path d="M1 2.5C1 1.67158 1.67158 1 2.5 1H19.5C20.3285 1 21 1.67158 21 2.5V7H1V2.5Z" stroke="white" stroke-width="2"/>
<path d="M4.75 4C4.75 3.58579 4.41421 3.25 4 3.25C3.58579 3.25 3.25 3.58579 3.25 4C3.25 4.41421 3.58579 4.75 4 4.75C4.41421 4.75 4.75 4.41421 4.75 4Z" fill="white" stroke="white" stroke-width="0.5"/>
<path d="M7.75 4C7.75 3.58579 7.41421 3.25 7 3.25C6.58579 3.25 6.25 3.58579 6.25 4C6.25 4.41421 6.58579 4.75 7 4.75C7.41421 4.75 7.75 4.41421 7.75 4Z" fill="white" stroke="white" stroke-width="0.5"/>
</svg>
