<?xml version="1.0" encoding="UTF-8"?><svg xmlns="http://www.w3.org/2000/svg" viewBox="0 0 249.03 95.72"><defs><style>.d{stroke:#f7f7f7;stroke-miterlimit:10;}.d,.e{fill:#f7f7f7;}</style></defs><g id="a"/><g id="b"><g id="c"><g><path class="e" d="M32.16,94.82c-4.55-.82-47.21-9.77-26.02-54.22,.03-.07,.14-.05,.13,.03-.31,2.86-1.48,19.57,14.12,12.93h0s3.11-1.66,3.41-6.22-3.56-13.19-3.41-24.74S33.01,.32,35.58,.51c.04,0,.07,.05,.06,.09-.36,1.1-4.39,13.68-3.83,19.63s4.74,16.59,14.81,16.89,12.56-7.9,12.3-14.69c0-.06,.06-.09,.1-.06,.73,.51,4.97,3.85,5.37,13.86,.44,10.96-4.44,11.41-4.15,20.59h0c0,.08,1.07,8.45,8,7.71s9.16-3.96,9.48-15.77c0-.07,.09-.1,.12-.04,.72,1.18,4.56,7.87,3.89,15.67-.74,8.53-3.41,26.7-34.98,30.44-.08,0-.12-.11-.04-.13,3.33-1.15,18.45-7.22,17.59-21.84,0-.06-.08-.09-.12-.05-.73,.86-5.16,5.77-9.02,6.92-3.46,1.03-6.37-2.01-6.87-5.05-1.11-6.75,.87-22.08-13.91-32.64-.06-.04-.14,.01-.11,.08,1.15,2.81,13.79,32-6.52,35.17,0,0-8.25,1.59-13.13-11.32-.03-.07-.13-.06-.13,.01-.13,2.44-.3,18.94,17.7,28.73,.07,.04,.04,.14-.03,.13Z"/><path class="e" d="M32.13,95.02c-13.72-2.62-28.55-11-31.47-25.73-2.07-9.79,1.02-19.8,5.1-28.67l.05-.12s.16-.33,.42-.28c.28-.1,.46,.54,.38,.47-.92,9.5,2.42,17.25,13.14,12.69,1.55-.58,2.61-2.16,3.17-3.69,.97-2.6,.27-5.45-.32-8.21-1.57-6.96-3.24-14.14-2.45-21.32,.67-4.33,2.78-8.32,5.37-11.78,2.45-3.12,5.22-6.2,8.79-8.05,.37-.15,.71-.32,1.25-.32-.11-.08,.65,.1,.57,.54-1.18,4.04-2.43,8.23-3.18,12.41-.48,2.75-.93,5.56-.47,8.33,.91,5.36,3.53,10.97,8.43,13.69,3.53,1.94,8.17,2.11,11.8,.28,4.5-2.4,5.77-8,5.59-12.77-.05,.19,.02-.77,.59-.76,.66,.04,.52,.2,.59,.17l.12,.09c5.67,4.9,6.41,15.13,4.7,22-.79,2.87-2.32,5.35-2.9,8.01-.35,1.5-.53,3.52-.38,5.02,1.16,6.06,5.14,8.18,10.82,5.89,5.01-2.06,4.8-9.36,5.09-13.96v-.13c.06-.08-.12,.08,.17-.57,.17-.5,1.27-.43,1.43,.05,5.5,8.91,5.14,20.45,.48,29.64-5.48,10.76-17.72,15.58-28.99,17.28-.67,.13-2.43,.36-3.08,.48-.06-.06,.08,.16-.71-.12-.71-.38-.6-1.55,.28-1.79,7.78-2.83,15.75-8.74,16.77-17.49,.21-1.02,.12-2.28,.15-3.31,.06,.03-.13-.32,.16,.34,.17,.46,1.14,.31,1.23,.04l-.37,.42c-4.45,4.93-12.47,11.49-16.56,2.41-1.2-4.8-.34-10.12-1.4-15.06-1.09-7.43-5.4-14.23-11.6-18.46l-.43-.32-.21-.16c.07,.05,.16,.04,.21-.07,3.17,6.74,6.28,15.09,5.79,23.01-.34,7.67-5.86,13.22-13.57,13.34-6.54-.36-10.55-6.52-12.41-12.17l-.05-.13c-.03-.13-.08,0,.22,.16,.22,.16,.56-.3,.48-.33-.9,11.88,6.3,22.63,16.6,28.07l.46,.27,.23,.14s.09,0,.19,.18c.09,.14-.1,.41-.29,.35h0Zm.07-.39c-.09-.03-.2,.12-.15,.18,.07,.1,.04,.04-.01,.02l-.23-.14-.46-.28c-10.06-5.69-17.1-16.63-17.29-28.3v-.14c-.09-.13,.34-.67,.65-.48,.4,.21,.34,.38,.42,.49,2.22,5.2,7.08,11.55,13.43,9.9,3.85-.81,7.15-3.3,8.45-7.11,1.8-5.12,1.11-10.97,.08-16.29-.7-3.44-1.74-6.91-2.98-10.21,0-.07-.06,0-.04-.27,.07-.19,.29-.23,.43-.13l.21,.17c8.86,6.64,12.81,16.71,13.72,27.49,.29,2.04,.28,4.21,.94,6.11,.65,1.68,2.22,3.24,4.01,3.43,1.25,.13,2.45-.44,3.54-1.05,2.32-1.39,4.4-3.34,6.27-5.38l.34-.38c.13-.35,1.23-.5,1.45,.03,.34,.74,.12,.49,.19,.6v1.4c.13,10.39-8.93,18.04-18.04,21.21,.06-.04-.32,.15,.1-.07,.6-.53,.34-1.19-.04-1.4-.71-.23-.48-.07-.45-.13,.24-.03,.67-.11,.91-.14,11.48-1.49,24.2-5.74,29.84-16.62,4.42-8.64,4.86-19.58-.31-28.01,.12,.4,1.09,.46,1.21,.04,.24-.58,.09-.32,.13-.31v.13c-.28,7.66-.91,15.9-10.49,16.28-4.62,.57-7.82-3.88-8.43-8-.09-.34-.06-.84-.06-1.19-.3-4.41,2.18-8.6,3.43-12.47,.77-2.65,.88-5.46,.71-8.26-.33-4.48-1.39-9.44-4.95-12.42-.01-.07-.21,0,.36,.05,.46,.03,.52-.82,.48-.54v.41c.13,5.04-1.47,10.94-6.29,13.47-3.69,1.87-8.17,1.77-11.93,.19-6.98-3.36-10.59-11.97-10.01-19.44,.54-5.45,2.28-11.81,3.82-16.47-.08,.33,.56,.47,.37,.41-1.23,.21-2.39,1.15-3.39,1.9-2.19,1.74-4.14,3.82-5.84,6.06-3.4,4.46-5.79,9.84-5.42,15.53,.09,5.7,1.3,11.27,2.55,16.82,.59,2.81,1.31,5.84,.26,8.66-.64,1.73-1.84,3.47-3.64,4.14l-1.01,.39c-10.81,3.96-14.09-4.64-13.09-13.88-.05-.15,.09,.38,.26,.28,.15,.04,.31-.24,.24-.11l-.05,.12-.22,.49c-12.85,26.85-3.02,46.83,26.04,53.23h0Z"/></g><g><path class="d" d="M106.74,1.21c12.84,0,20.41,7.8,20.41,21.65s-7.56,21.99-20.41,21.99h-16.34V1.21h16.34Zm-7.39,36.08h6.32c8.01,0,12.34-4.96,12.34-14.4s-4.45-14.15-12.34-14.15h-6.32v28.55Z"/><path class="d" d="M132.9,44.85V1.21h8.96V44.85h-8.96Z"/><path class="d" d="M186.32,44.85V15.4h-.24l-11.63,29.03h-5.64l-11.63-29.03h-.24v29.46h-7.98V1.21h10.38l12.16,30.94h.24L183.92,1.21h10.38V44.85h-7.98Z"/><path class="d" d="M90.39,94.4V50.76h18.63c8.04,0,13.08,4.2,13.08,10.89,0,4.78-3.5,8.77-8.04,9.47v.24c5.81,.45,10.09,4.78,10.09,10.55,0,7.68-5.67,12.49-14.8,12.49h-18.95Zm8.96-25.5h6.44c4.78,0,7.5-2.15,7.5-5.84s-2.4-5.5-6.59-5.5h-7.36v11.34Zm7.71,18.69c5.16,0,7.95-2.24,7.95-6.41s-2.88-6.26-8.16-6.26h-7.5v12.67h7.71Z"/><path class="d" d="M128.51,61.98h8.36v5.84h.18c1.13-4.11,3.83-6.35,7.56-6.35,1.01,0,1.87,.15,2.46,.33v7.77c-.71-.3-1.9-.51-3.14-.51-4.27,0-6.76,2.66-6.76,7.23v18.12h-8.66V61.98Z"/><path class="d" d="M148.65,85.08c0-5.9,4.45-9.32,12.37-9.8l8.01-.48v-2.15c0-3.02-2.08-4.78-5.34-4.78s-5.28,1.63-5.7,4.02h-7.92c.33-6.29,5.58-10.62,14-10.62s13.47,4.29,13.47,10.83v22.29h-8.36v-4.96h-.18c-1.78,3.45-5.72,5.47-9.7,5.47-6.05,0-10.65-3.99-10.65-9.83Zm20.38-2.57v-2.36l-6.7,.42c-3.23,.24-5.07,1.72-5.07,4.02,0,2.42,1.96,3.93,4.89,3.93,3.77,0,6.88-2.51,6.88-6.02Z"/><path class="d" d="M183.12,61.98h8.36v5.78h.18c1.69-4.02,5.04-6.38,9.94-6.38,7.06,0,11.04,4.54,11.04,12.13v20.9h-8.66v-19.05c0-4.23-1.96-6.65-5.84-6.65s-6.35,2.9-6.35,7.11v18.6h-8.66V61.98Z"/><path class="d" d="M216.97,78.13c0-10.28,5.04-16.66,13.02-16.66,4.6,0,8.16,2.48,9.7,6.08h.18v-16.79h8.66v43.64h-8.54v-5.56h-.15c-1.54,3.57-5.22,6.08-9.91,6.08-7.95,0-12.96-6.41-12.96-16.78Zm8.87,.06c0,5.96,2.67,9.62,7.03,9.62s7.06-3.69,7.06-9.62-2.76-9.65-7.06-9.65-7.03,3.72-7.03,9.65Z"/></g></g></g></svg>