<svg xmlns="http://www.w3.org/2000/svg" xmlns:xlink="http://www.w3.org/1999/xlink" width="315" height="315" viewBox="0 0 315 315"><defs><style>.a{fill:#fff;}.b{fill:url(#c);}.c{filter:url(#a);}</style><filter id="a" x="0" y="0" width="315" height="315" filterUnits="userSpaceOnUse"><feOffset dy="5" input="SourceAlpha"/><feGaussianBlur stdDeviation="10" result="b"/><feFlood flood-color="#aaa" flood-opacity="0.4"/><feComposite operator="in" in2="b"/><feComposite in="SourceGraphic"/></filter><linearGradient id="c" y1="0.5" x2="1" y2="0.5" gradientUnits="objectBoundingBox"><stop offset="0" stop-color="#8b5e3b"/><stop offset="0.42" stop-color="#8b5e3b"/><stop offset="0.49" stop-color="#8b5e3b"/><stop offset="0.49" stop-color="#8c5f3b"/><stop offset="0.5" stop-color="#a0744d"/><stop offset="0.51" stop-color="#b0855b"/><stop offset="0.52" stop-color="#bb9164"/><stop offset="0.53" stop-color="#c2986a"/><stop offset="0.56" stop-color="#c49a6c"/><stop offset="0.62" stop-color="#c49a6c"/><stop offset="1" stop-color="#c49a6c"/></linearGradient></defs><g transform="translate(-1635 -1746)"><g transform="translate(142 26)"><g class="c" transform="matrix(1, 0, 0, 1, 1493, 1720)"><rect class="a" width="255" height="255" rx="50" transform="translate(30 25)"/></g></g><g transform="translate(1709 1839)"><path class="b" d="M112.158,98.456V73.149h24.533a1.608,1.608,0,0,0,1.273-2.6L84.416.629a1.62,1.62,0,0,0-2.563,0L28.322,70.554a1.617,1.617,0,0,0,1.273,2.6H54.128V98.456A166.794,166.794,0,0,0,0,118.541a254.307,254.307,0,0,1,166.286,0A166.425,166.425,0,0,0,112.158,98.456Z"/></g></g></svg>