<svg xmlns="http://www.w3.org/2000/svg" xmlns:xlink="http://www.w3.org/1999/xlink" width="360" height="360" viewBox="0 0 360 360"><defs><style>.a{fill:#fff;}.b{fill:url(#c);}.c{filter:url(#a);}</style><filter id="a" x="0" y="0" width="360" height="360" filterUnits="userSpaceOnUse"><feOffset dy="5" input="SourceAlpha"/><feGaussianBlur stdDeviation="10" result="b"/><feFlood flood-color="#aaa" flood-opacity="0.4"/><feComposite operator="in" in2="b"/><feComposite in="SourceGraphic"/></filter><linearGradient id="c" x1="-0.023" y1="0.5" x2="1" y2="0.5" gradientUnits="objectBoundingBox"><stop offset="0" stop-color="#231557"/><stop offset="0.23" stop-color="#44107a"/><stop offset="0.661" stop-color="#ff1361"/><stop offset="1" stop-color="#fff800"/></linearGradient></defs><g transform="translate(-803 -1746)"><g transform="translate(427)"><g class="c" transform="matrix(1, 0, 0, 1, 376, 1746)"><rect class="a" width="300" height="300" rx="50" transform="translate(30 25)"/></g></g><g transform="translate(287 -207)"><path class="b" d="M-118.957-14.436h30.016v-9.951h-17.183V-52.5h-12.833Zm48.885.544c10.114,0,17.292-6.417,17.292-15.443s-7.178-15.389-17.292-15.389c-10.06,0-17.292,6.362-17.292,15.389S-80.132-13.892-70.072-13.892Zm0-9.57c-2.719,0-4.84-2.012-4.84-5.873s2.121-5.818,4.84-5.818,4.84,1.958,4.84,5.818S-67.353-23.462-70.072-23.462ZM-27.386-44.18v3.371c-1.849-2.664-4.731-3.915-8.809-3.915-7.558,0-14.3,5.492-14.3,14.3a13.988,13.988,0,0,0,14.3,14.356c3.643,0,6.362-1.033,8.211-3.154v.544c0,3.97-2.012,6.2-7.069,6.2a17.132,17.132,0,0,1-9.516-2.936L-48.7-7.041c3.7,2.447,9.027,3.7,14.9,3.7,11.365,0,18.108-5.492,18.108-17.02V-44.18Zm-5.546,18.543c-2.882,0-5.111-1.9-5.111-4.785s2.229-4.731,5.111-4.731,5.057,1.849,5.057,4.731A4.729,4.729,0,0,1-32.932-25.638ZM5.458-13.892c10.114,0,17.292-6.417,17.292-15.443S15.573-44.724,5.458-44.724c-10.06,0-17.292,6.362-17.292,15.389S-4.6-13.892,5.458-13.892Zm0-9.57c-2.719,0-4.84-2.012-4.84-5.873s2.121-5.818,4.84-5.818S10.3-33.2,10.3-29.335,8.177-23.462,5.458-23.462Zm-154.3,75.73h18.76c12.724,0,21.479-7.232,21.479-19.032S-117.353,14.2-130.077,14.2h-18.76ZM-136,42.262V24.208h5.383c5.383,0,9.081,3.208,9.081,9.027s-3.7,9.027-9.081,9.027Zm63.35-4.894c0-10.06-7.558-15.389-16.368-15.389-9.625,0-16.857,6.362-16.857,15.389,0,8.864,7.069,15.443,18,15.443,5.927,0,10.114-1.631,13-4.785L-81.3,41.555a9.087,9.087,0,0,1-6.2,2.175c-3.045,0-5.111-1.2-5.982-3.48h20.663C-72.764,39.38-72.655,38.238-72.655,37.368Zm-16.259-7.015a4.616,4.616,0,0,1,4.785,3.97H-93.7A4.58,4.58,0,0,1-88.914,30.353Zm31.756,22.458c10.332,0,15.389-4.676,15.389-10.06,0-11.909-17.074-7.885-17.074-10.984,0-.707.87-1.414,4.024-1.414a17.621,17.621,0,0,1,8.592,2.175l3.371-8.1c-3.154-1.631-7.776-2.447-12.126-2.447-10.005,0-15.226,4.568-15.226,10.169,0,11.909,17.129,7.83,17.129,10.875,0,.87-.816,1.414-3.806,1.414a21.523,21.523,0,0,1-10.386-2.664l-3.371,8.1C-67.6,51.615-62.269,52.811-57.157,52.811ZM-31.926,20.13c4.513,0,7.4-2.719,7.4-6.471,0-3.535-2.882-6.036-7.4-6.036s-7.4,2.719-7.4,6.253S-36.439,20.13-31.926,20.13Zm-6.145,32.137h12.289V22.523H-38.071ZM1.19,22.523v3.371c-1.849-2.664-4.731-3.915-8.809-3.915-7.558,0-14.3,5.492-14.3,14.3a13.988,13.988,0,0,0,14.3,14.356c3.643,0,6.362-1.033,8.211-3.154v.544c0,3.97-2.012,6.2-7.069,6.2a17.132,17.132,0,0,1-9.516-2.936l-4.133,8.374c3.7,2.447,9.027,3.7,14.9,3.7,11.365,0,18.108-5.492,18.108-17.02V22.523ZM-4.357,41.065c-2.882,0-5.111-1.9-5.111-4.785s2.229-4.731,5.111-4.731S.7,33.4.7,36.28A4.729,4.729,0,0,1-4.357,41.065ZM38.982,21.979a12.389,12.389,0,0,0-8.972,3.48V22.523H18.319V52.267H30.608V38.292c0-4.4,2.121-5.982,4.622-5.982,2.229,0,3.643,1.414,3.643,5.111V52.267H51.163V35.3C51.163,25.948,45.834,21.979,38.982,21.979Z" transform="translate(744.838 2122.5)"/></g></g></svg>