<svg xmlns="http://www.w3.org/2000/svg" xmlns:xlink="http://www.w3.org/1999/xlink" width="314" height="315" viewBox="0 0 314 315"><defs><style>.a{fill:#fff;}.b{fill:#d0b183;}.c{fill:#d0b283;}.d{filter:url(#a);}</style><filter id="a" x="0" y="0" width="314" height="315" filterUnits="userSpaceOnUse"><feOffset dy="5" input="SourceAlpha"/><feGaussianBlur stdDeviation="10" result="b"/><feFlood flood-color="#aaa" flood-opacity="0.4"/><feComposite operator="in" in2="b"/><feComposite in="SourceGraphic"/></filter></defs><g transform="translate(-1437 -2134)"><g transform="translate(1467 2158.979)"><g class="d" transform="matrix(1, 0, 0, 1, -30, -24.98)"><rect class="a" width="254" height="255" rx="50" transform="translate(30 25)"/></g></g><g transform="translate(1513.004 2203.01)"><g transform="translate(-0.004 -0.009)"><path d="M159.786,74.776c-3.524-.9-8.48-.415-12.347.229,0-.329.029-.659.029-.988,0-21.486-14.94-40.079-36.727-49.16a54.269,54.269,0,0,0-2.12-9.712,23.2,23.2,0,0,1-1.375,8.351c-.573-.2-1.146-.4-1.733-.587a34.468,34.468,0,0,0-4.526-11.588,86.952,86.952,0,0,1-1.633,9.826c-2.235-.544-4.526-.974-6.861-1.318C87.35-1.228,78.082,0,78.082,0,81.2,8.684,81.72,14.729,81.033,18.94h-.4c-1.189,0-2.363.029-3.538.072-1.3-11.244-6.03-12.634-6.03-12.634a32.455,32.455,0,0,1-5.429,13.966C35.955,25.945,13.781,47.832,13.781,74c0,.272.029.53.029.788-3.638-.53-7.936-.845-11.072-.029-6.575,1.7.63,17.619,1.49,19.309.8,1.6,6.174,16.129,22.947,13.006a62.471,62.471,0,0,0,13.379,11c.788,27.33,19.337,49.2,42.141,49.2s42.17-22.833,42.17-51.008c0-.329-.014-.659-.014-.988a61.764,61.764,0,0,0,9.411-8.423c17.633,4,23.219-11.144,24.05-12.777.845-1.7,8.064-17.619,1.49-19.309Z" transform="translate(0.004 0.009)"/><path class="b" d="M129.211,68.076A30.92,30.92,0,0,0,73.734,49.268a30.925,30.925,0,1,0-28.892,48.96,31.669,31.669,0,1,0,60.548-.057A30.921,30.921,0,0,0,129.2,68.09Z" transform="translate(7.733 15.848)"/><circle cx="10.299" cy="10.299" r="10.299" transform="translate(96.85 73.353)"/><circle cx="10.299" cy="10.299" r="10.299" transform="translate(45.155 73.353)"/><circle cx="2.578" cy="2.578" r="2.578" transform="translate(71.912 98.105)"/><circle cx="2.578" cy="2.578" r="2.578" transform="translate(85.477 98.105)"/><path d="M87.9,89.816a40.465,40.465,0,0,0-6.174-2.177c-4.312-1.132-6.732-.96-16.9-.831-11.316.143-14.424,0-19.581,1.576a41.716,41.716,0,0,0-3.982,1.432,16.933,16.933,0,0,0,1.074,4.827c4.44,11.431,20.426,13.88,22.474,14.152.988-.272,2.722-.773,4.827-1.561,6.747-2.492,15.284-5.644,17.647-12.605a12.281,12.281,0,0,0,.6-4.827Z" transform="translate(17.847 37.509)"/><path class="c" d="M69.13,94.252a5.639,5.639,0,0,0-2.406-.845c-2.822-.272-3.653,2.12-6.8,2.306A8.294,8.294,0,0,1,54.792,94.6a3.638,3.638,0,0,0-2.235-.9,2.946,2.946,0,0,0-1.547.559,6.612,6.612,0,0,0,.415,1.876c1.719,4.44,7.936,5.386,8.738,5.5.387-.1,1.06-.3,1.876-.6,2.621-.974,5.944-2.192,6.861-4.9a4.642,4.642,0,0,0,.229-1.876Z" transform="translate(22.062 40.394)"/></g></g></g></svg>