<svg xmlns="http://www.w3.org/2000/svg" xmlns:xlink="http://www.w3.org/1999/xlink" width="314" height="315" viewBox="0 0 314 315"><defs><style>.a{fill:none;}.b{fill:#fff;}.c{clip-path:url(#c);}.d{fill:url(#d);}.e{filter:url(#a);}</style><filter id="a" x="0" y="0" width="314" height="315" filterUnits="userSpaceOnUse"><feOffset dy="5" input="SourceAlpha"/><feGaussianBlur stdDeviation="10" result="b"/><feFlood flood-color="#aaa" flood-opacity="0.4"/><feComposite operator="in" in2="b"/><feComposite in="SourceGraphic"/></filter><clipPath id="c"><path class="a" d="M25.809,9.036q7.254,0,11.169,3.586c2.6,2.4,3.894,5.758,3.894,10.123a14.875,14.875,0,0,1-2.09,7.931,11.14,11.14,0,0,1-5.328,4.734v.164a9.818,9.818,0,0,1,6.66,4.3,15.019,15.019,0,0,1,2.48,8.75q0,7.746-4.263,12.3T26.69,65.473H10.009V9.036h15.8M19.784,32.172h4.3a6.234,6.234,0,0,0,4.775-1.885A7.368,7.368,0,0,0,30.6,25.082a6.611,6.611,0,0,0-1.783-5.021,7.605,7.605,0,0,0-5.349-1.68H19.8V32.152m0,23.936h5.287A6.887,6.887,0,0,0,30.4,54.038a7.833,7.833,0,0,0,1.926-5.595,6.706,6.706,0,0,0-1.885-5.021A7.3,7.3,0,0,0,25.153,41.6H19.8V56.087m6-51.15h-15.8a4.111,4.111,0,0,0-4.1,4.1V65.473a4.111,4.111,0,0,0,4.1,4.1H26.69c6.086,0,11-1.967,14.632-5.84,3.566-3.812,5.369-8.873,5.369-15.1a19.289,19.289,0,0,0-3.2-11.087,15.613,15.613,0,0,0-2.541-2.869,18.09,18.09,0,0,0,1.312-1.885A19.015,19.015,0,0,0,44.949,22.7c0-5.533-1.762-9.96-5.226-13.136-3.381-3.094-8.054-4.652-13.935-4.652h0ZM23.882,28.074V22.5a3.277,3.277,0,0,1,2.111.553,3.046,3.046,0,0,1,.492,2.029,3.594,3.594,0,0,1-.656,2.418c-.143.164-.512.553-1.742.553h-.2Zm0,17.644h1.25a3.505,3.505,0,0,1,2.439.676c.164.164.635.615.635,2.07a3.646,3.646,0,0,1-.82,2.787c-.184.2-.7.758-2.316.758H23.882V45.718h0ZM66.651,24.467a6.94,6.94,0,0,1,1.312.123q.646.123,1.353.307l-.963,10.595a11.1,11.1,0,0,0-1.189-.246,8.937,8.937,0,0,0-1.332-.082A6.232,6.232,0,0,0,60.2,38.054q-1.844,2.889-1.844,8.177V65.473h-9.57V25.184h9.57v7.48h.123a13.754,13.754,0,0,1,3.156-6.148,6.755,6.755,0,0,1,5-2.049m0-4.1a10.976,10.976,0,0,0-5.779,1.578,4.115,4.115,0,0,0-2.521-.861h-9.57a4.111,4.111,0,0,0-4.1,4.1V65.494a4.111,4.111,0,0,0,4.1,4.1h9.57a4.111,4.111,0,0,0,4.1-4.1V46.251c0-3.381.656-5.1,1.209-5.963.328-.512.758-1,2.172-1a4.836,4.836,0,0,1,.8.041,2.972,2.972,0,0,1,.615.123,3.857,3.857,0,0,0,1.086.143,4.108,4.108,0,0,0,4.078-3.73l.963-10.595a4.1,4.1,0,0,0-2.971-4.324c-.615-.164-1.168-.307-1.721-.41a11.376,11.376,0,0,0-2.049-.184h0ZM85.75,24.2q6.916,0,10.185,4.283,3.258,4.3,3.258,12.91V65.473H90.156V59.694h-.123a12.594,12.594,0,0,1-3.853,5.082,8.683,8.683,0,0,1-5.246,1.7,8.943,8.943,0,0,1-6.906-3.217c-1.926-2.131-2.889-5.144-2.889-9a13.9,13.9,0,0,1,2.849-9.14c1.906-2.377,4.877-3.894,8.935-4.611l7.3-1.25v-.779A6.059,6.059,0,0,0,88.8,34.14a5.192,5.192,0,0,0-3.935-1.475,12.764,12.764,0,0,0-4.242.82,18.309,18.309,0,0,0-4.775,2.644l-3.238-7.357a22.844,22.844,0,0,1,6.312-3.484A20.9,20.9,0,0,1,85.75,24.2m-1.6,33.465a5.117,5.117,0,0,0,4.385-2.418,10.45,10.45,0,0,0,1.7-6.127V46.394l-5.636.943a5.469,5.469,0,0,0-3.484,1.824,5.6,5.6,0,0,0-1.168,3.648,5.126,5.126,0,0,0,1.127,3.484,3.808,3.808,0,0,0,3.074,1.353m1.6-37.563a24.488,24.488,0,0,0-8.156,1.312,26.581,26.581,0,0,0-7.439,4.1,4.072,4.072,0,0,0-1.271,4.918l3.238,7.357a4.12,4.12,0,0,0,1.783,1.947,15.068,15.068,0,0,0-3.074,2.849,18.1,18.1,0,0,0-3.771,11.7c0,4.672,1.332,8.832,3.935,11.742a13.113,13.113,0,0,0,9.96,4.57,12.755,12.755,0,0,0,6.722-1.844,4.115,4.115,0,0,0,2.521.861h9.037a4.111,4.111,0,0,0,4.1-4.1V41.415c0-6.742-1.353-11.763-4.1-15.39-2.992-3.914-7.5-5.9-13.464-5.9h0Zm-1.6,33.465a1.89,1.89,0,0,1-.1-.738,1.773,1.773,0,0,1,.246-1.066,1.94,1.94,0,0,1,.984-.369l.594-.1a4.757,4.757,0,0,1-.717,1.6c-.471.656-.758.676-1.025.676h0ZM126.408,24.18a8.467,8.467,0,0,1,7.705,4.16c1.721,2.767,2.562,6.927,2.562,12.46V65.473h-9.529v-22.4c0-3.115-.43-5.472-1.291-7.029A4.159,4.159,0,0,0,122,33.709a4.661,4.661,0,0,0-4.078,2.48,11.422,11.422,0,0,0-1.6,6.291V65.473h-9.57V25.184h9.57v6.373h.123a14.116,14.116,0,0,1,4.2-5.533,9.371,9.371,0,0,1,5.758-1.824m0-4.1a13.523,13.523,0,0,0-7.316,2.049,4.1,4.1,0,0,0-2.746-1.066h-9.57a4.111,4.111,0,0,0-4.1,4.1V65.494a4.111,4.111,0,0,0,4.1,4.1h9.57a4.111,4.111,0,0,0,4.1-4.1V42.5a7.7,7.7,0,0,1,.943-4.078c.389-.615.574-.615.635-.615h.143a1.475,1.475,0,0,1,.123.2c.246.43.779,1.783.779,5.062v22.4a4.111,4.111,0,0,0,4.1,4.1H136.7a4.111,4.111,0,0,0,4.1-4.1V40.8c0-6.373-1.045-11.148-3.176-14.611a12.543,12.543,0,0,0-11.21-6.086h0ZM174.587,5.819V65.494h-9.57V59.94h-.123a12.663,12.663,0,0,1-4.017,4.9,9.655,9.655,0,0,1-5.574,1.639q-5.779,0-9.324-5.328c-2.377-3.566-3.545-8.525-3.545-14.9s1.312-12.009,3.914-16.025q3.935-6.025,10.205-6.025a9.023,9.023,0,0,1,5.082,1.394,9.141,9.141,0,0,1,3.258,4.2h.123V5.819h9.57m-15.943,51.13c1.926,0,3.5-1,4.734-3.033a15.343,15.343,0,0,0,1.824-8.033V42.849a11.474,11.474,0,0,0-1.762-6.537,5.279,5.279,0,0,0-4.57-2.6,5.492,5.492,0,0,0-4.959,3.238q-1.783,3.258-1.783,8.914c0,3.545.574,6.271,1.721,8.2a5.3,5.3,0,0,0,4.775,2.869M174.607,1.72h-9.57a4.111,4.111,0,0,0-4.1,4.1V20.758a14.319,14.319,0,0,0-4.365-.656c-5.574,0-10.287,2.726-13.648,7.89-3.033,4.672-4.59,10.82-4.59,18.259s1.434,12.951,4.242,17.173c3.115,4.693,7.521,7.152,12.747,7.152a13.809,13.809,0,0,0,7.152-1.885,4.141,4.141,0,0,0,2.562.9h9.57a4.111,4.111,0,0,0,4.1-4.1V5.819a4.111,4.111,0,0,0-4.1-4.1ZM158.664,52.85c-.369,0-.738,0-1.271-.881-.512-.861-1.148-2.623-1.148-6.086a15.423,15.423,0,0,1,1.271-6.947c.615-1.127,1.045-1.127,1.373-1.127.307,0,.635,0,1.168.8a7.509,7.509,0,0,1,1.045,4.242v3.033a11.341,11.341,0,0,1-1.25,5.9c-.635,1.045-1.025,1.045-1.23,1.045h0Z" transform="translate(-5.91 -1.72)"/></clipPath><linearGradient id="d" y1="0.5" x2="1" y2="0.5" gradientUnits="objectBoundingBox"><stop offset="0" stop-color="#b465da"/><stop offset="0.19" stop-color="#c168d1"/><stop offset="0.33" stop-color="#cf6cc9"/><stop offset="0.36" stop-color="#d26ac4"/><stop offset="0.66" stop-color="#ee609c"/><stop offset="1" stop-color="#ee609c"/></linearGradient></defs><g transform="translate(-171 -2133)"><g transform="translate(201 2157.979)"><g class="e" transform="matrix(1, 0, 0, 1, -30, -24.98)"><rect class="b" width="254" height="255" rx="50" transform="translate(30 25)"/></g></g><g transform="translate(236.09 2249.28)"><g transform="translate(5.91 1.72)"><g class="c"><rect class="d" width="197.879" height="75.905" transform="translate(-12.111 -3.525)"/></g></g></g></g></svg>