<svg xmlns="http://www.w3.org/2000/svg" xmlns:xlink="http://www.w3.org/1999/xlink" width="314" height="315" viewBox="0 0 314 315"><defs><style>.a{fill:#fff;}.b{fill:#f7c515;}.c{fill:#ef8f1d;}.d{fill:#e84a22;}.e{filter:url(#a);}</style><filter id="a" x="0" y="0" width="314" height="315" filterUnits="userSpaceOnUse"><feOffset dy="5" input="SourceAlpha"/><feGaussianBlur stdDeviation="10" result="b"/><feFlood flood-color="#aaa" flood-opacity="0.4"/><feComposite operator="in" in2="b"/><feComposite in="SourceGraphic"/></filter></defs><g transform="translate(-1437 -1358)"><g transform="translate(1467 1383.021)"><g class="e" transform="matrix(1, 0, 0, 1, -30, -25.02)"><rect class="a" width="254" height="255" rx="50" transform="translate(30 25)"/></g></g><g transform="translate(1554 1414)"><path class="b" d="M1.24,82.534S7.411,125.1,38.689,124.756C69.982,124.41,84.4,82.3,72.761,40.076c0,0,0,35.125-14.477,34.073,0,0-12.97,1.052-10.881-21.292C49.491,30.53,57.389,25.113,39-.01c0,0,10.379,49.9-10.033,46.226-20.412-3.659-9.248-28.954-8.542-31.058C16.251,20.434,8.259,32.194,10.316,45.509a48.806,48.806,0,0,0,4.239,12.734c4.239,8.871,8.2,10.9,11.29,18.732A38.659,38.659,0,0,1,28.467,90.7c-.031.628-.424,6.029-4.475,8.259-2.968,1.633-6.171.6-8.024,0C6.579,95.943,2.323,85.376,1.256,82.5Z" transform="translate(0.709 0.01)"/><path class="c" d="M1.24,67.977S7.411,110.545,38.689,110.2C69.982,109.854,84.4,67.742,72.761,25.52c0,0,0,35.125-14.477,34.073s-10.646-23.9-10.646-23.9A37.2,37.2,0,0,0,39.411,48.9c-4.8,13.566,1.6,22.485-4.616,30.3-5.04,6.328-13.755,6.124-14.194,6.108-8.416-.33-16.283-7.176-19.36-17.335Z" transform="translate(0.709 14.566)"/><path class="d" d="M1.24,67.977S7.411,110.545,38.689,110.2,84.4,67.742,72.761,25.52c0,0,3.659,59.9-33.759,69.669,0,0-16.942,5.81-37.763-27.211Z" transform="translate(0.709 14.566)"/><path d="M39.255,99.184c-.424,0-.864,0-1.288-.016C16.017,98.43,1.383,79.086.77,78.269a3.927,3.927,0,0,1,6.3-4.695h0c.126.173,13.064,17.178,31.215,17.743,11.651.408,23.144-6.045,34.245-19.046a3.921,3.921,0,0,1,5.967,5.087c-12.357,14.477-25.547,21.81-39.239,21.81Z" transform="translate(0.002 40.436)"/><path d="M34.968,134.471,53.528,102.11H12.97l18.559,32.361a1.975,1.975,0,0,0,3.423,0Z" transform="translate(7.398 58.236)"/><path d="M39.809,105.5c-20.192,0-34.073-11.337-37.951-14.932A3.922,3.922,0,0,1,7.181,84.8c3.486,3.219,16.33,13.708,34.858,12.781a48.777,48.777,0,0,0,31.309-13.8,3.931,3.931,0,0,1,5.511,5.606,56.773,56.773,0,0,1-36.444,16.047c-.879.047-1.743.063-2.606.063Z" transform="translate(0.343 47.14)"/><path d="M39.688,113.292A62.33,62.33,0,0,1,2.1,100.306,3.926,3.926,0,1,1,6.934,94.12a53.934,53.934,0,0,0,34.8,11.274A53.42,53.42,0,0,0,73.588,93.1a3.924,3.924,0,1,1,5.025,6.029,61.436,61.436,0,0,1-36.569,14.1q-1.178.047-2.355.047Z" transform="translate(0.338 52.581)"/></g></g></svg>