<svg xmlns="http://www.w3.org/2000/svg" xmlns:xlink="http://www.w3.org/1999/xlink" width="315" height="315" viewBox="0 0 315 315"><defs><style>.a{fill:#fff;}.b{fill:#af7b52;}.c{filter:url(#a);}</style><filter id="a" x="0" y="0" width="315" height="315" filterUnits="userSpaceOnUse"><feOffset dy="5" input="SourceAlpha"/><feGaussianBlur stdDeviation="10" result="b"/><feFlood flood-color="#aaa" flood-opacity="0.4"/><feComposite operator="in" in2="b"/><feComposite in="SourceGraphic"/></filter></defs><g transform="translate(-376 -1746)"><g class="c" transform="matrix(1, 0, 0, 1, 376, 1746)"><rect class="a" width="255" height="255" rx="50" transform="translate(30 25)"/></g><g transform="translate(438 1801)"><rect class="b" width="85.934" height="6.263" transform="translate(25.892 104.53) rotate(-44.49)"/><rect class="b" width="86.357" height="6.263" transform="translate(100.365 145.019) rotate(-45)"/><rect class="b" width="6.263" height="88.502" transform="translate(42.435 105.791) rotate(-44.2)"/><path class="b" d="M17.694,85.748a17.694,17.694,0,1,1,0-35.388,17.492,17.492,0,0,1,5.261.8,19.04,19.04,0,0,1,6.279,3.492,26.387,26.387,0,0,1,4.2,4.056l-4.807,4.009a21.133,21.133,0,0,0-3.179-3.085,13.156,13.156,0,0,0-4.337-2.49,11.316,11.316,0,0,0-3.4-.517,11.431,11.431,0,1,0,8.158,19.432l4.463,4.384A17.545,17.545,0,0,1,17.71,85.733Z" transform="translate(0 28.512)"/><path class="b" d="M117.514,85.748a17.694,17.694,0,1,1,17.694-17.694A17.716,17.716,0,0,1,117.514,85.748Zm0-29.109A11.431,11.431,0,1,0,128.945,68.07a11.444,11.444,0,0,0-11.431-11.431Z" transform="translate(56.484 28.512)"/><path class="b" d="M116.651,91.64,54.408,29.459a17.7,17.7,0,1,1,30.91-11.775,20.114,20.114,0,0,1-.908,5.621,26.839,26.839,0,0,1-6.749,11.431l-4.478-4.384A20.68,20.68,0,0,0,78.4,21.583a13.857,13.857,0,0,0,.673-3.883,11.431,11.431,0,1,0-20.027,7.532l62.039,61.977Z" transform="translate(28.253 0.01)"/><path class="b" d="M67.624,137.024A17.716,17.716,0,0,1,49.93,119.33a17.524,17.524,0,0,1,3.382-10.4l.3-.344L60,102.09l4.463,4.384L58.245,112.8A11.437,11.437,0,1,0,75.7,111.266l4.431-4.431A17.694,17.694,0,0,1,67.624,137.04Z" transform="translate(28.253 57.784)"/><path class="b" d="M85.529,81.4c-.423,2.177-2.537,9.52-3.241,11.7H49.53V91.128c6.4-.642,6.984-.986,6.984-6.984V56.178c0-5.982-.7-6.342-6.342-6.905V47.3H69.056v1.973c-5.637.564-6.4.846-6.4,6.905V84.849c0,4.306.564,5.293,4.572,5.355.078,0,5.152.063,5.574.063,3.586,0,4.651-.423,6.263-2.192a23.894,23.894,0,0,0,4.29-7.25l2.192.564Z" transform="translate(28.027 26.781)"/></g></g></svg>