<svg xmlns="http://www.w3.org/2000/svg" xmlns:xlink="http://www.w3.org/1999/xlink" width="316" height="315" viewBox="0 0 316 315"><defs><filter id="a" x="0" y="0" width="316" height="315" filterUnits="userSpaceOnUse"><feOffset dy="5" input="SourceAlpha"/><feGaussianBlur stdDeviation="10" result="b"/><feFlood flood-color="#aaa" flood-opacity="0.4"/><feComposite operator="in" in2="b"/><feComposite in="SourceGraphic"/></filter></defs><g transform="translate(-171 -1752)"><g transform="translate(2 394)"><g transform="matrix(1, 0, 0, 1, 169, 1358)" filter="url(#a)"><path d="M50,0H206a50,50,0,0,1,50,50V205a50,50,0,0,1-50,50H50A50,50,0,0,1,0,205V50A50,50,0,0,1,50,0Z" transform="translate(30 25)" fill="#fff"/></g></g><g transform="translate(254 1830)"><path d="M81.835,70.05a28,28,0,1,0,28,28A28.037,28.037,0,0,0,81.835,70.05Zm0,45.694A17.684,17.684,0,1,1,99.519,98.06,17.7,17.7,0,0,1,81.835,115.744Z" transform="translate(-26.978 -35.106)" fill="#fb8c00"/><circle cx="10.78" cy="10.78" r="10.78" transform="translate(44.077 52.174)" fill="#fb8c00"/><path d="M194.16,152.55a17.29,17.29,0,1,0,17.295,17.29A17.31,17.31,0,0,0,194.16,152.55Zm0,27.207a9.912,9.912,0,1,1,9.912-9.912A9.914,9.914,0,0,1,194.16,179.757Z" transform="translate(-88.64 -76.452)" fill="#fb8c00"/><path d="M126.052,0H23.61A23.61,23.61,0,0,0,0,23.61V126.052a23.61,23.61,0,0,0,23.61,23.61H126.052a23.61,23.61,0,0,0,23.61-23.61V23.61A23.61,23.61,0,0,0,126.052,0ZM105.519,117.586a24.234,24.234,0,0,1-22.268-14.731,12.916,12.916,0,1,1-16.457-7.093,34.778,34.778,0,1,1,.165-.06,12.911,12.911,0,0,1,16.257,7.064,24.2,24.2,0,1,1,22.308,14.82Z" fill="#fb8c00"/><path d="M142.974,208.422a7.732,7.732,0,1,1-7.732-7.732A7.739,7.739,0,0,1,142.974,208.422Z" transform="translate(-63.903 -100.578)" fill="#fb8c00"/></g></g></svg>