<svg xmlns="http://www.w3.org/2000/svg" xmlns:xlink="http://www.w3.org/1999/xlink" width="314" height="315" viewBox="0 0 314 315"><defs><style>.a{fill:none;}.b{fill:#fff;}.c{clip-path:url(#c);}.d{fill:url(#d);}.e{filter:url(#a);}</style><filter id="a" x="0" y="0" width="314" height="315" filterUnits="userSpaceOnUse"><feOffset dy="5" input="SourceAlpha"/><feGaussianBlur stdDeviation="10" result="b"/><feFlood flood-color="#aaa" flood-opacity="0.4"/><feComposite operator="in" in2="b"/><feComposite in="SourceGraphic"/></filter><clipPath id="c"><path class="a" d="M126.235,107.461h0a75.028,75.028,0,0,0,5.7-28.908c0-36.693-25.619-66.423-57.25-66.423S17.44,41.86,17.44,78.553a75.028,75.028,0,0,0,5.7,28.908h0c3.109,7.477,20.017,33.918,25.207,39.52h56.53c2.544-3.726,19.554-35.177,21.353-39.494h0ZM62.9,112.138c0-9.3,6.141-16.831,13.7-16.831s13.7,7.529,13.7,16.831c0,8.351-4.959,15.263-11.435,16.574-1.054.128-2.133.154-3.212.18-7.118-.591-12.771-7.863-12.771-16.779ZM74.664,28.087c24.025-.488,42.963,26.929,42.963,50.441a54.853,54.853,0,0,1-13.208,36.334c.077-1.054.128-2.133.128-3.212,0-17.936-12.539-32.479-27.983-32.479S48.583,93.714,48.583,111.649a37.384,37.384,0,0,0,.822,7.657,66.17,66.17,0,0,1-10.689-17.242,64.031,64.031,0,0,1-5.139-23.409c-.051-19.94,16.188-50.029,41.062-50.543Zm20.3,147.031H58.219a8.79,8.79,0,0,1-8.762-8.762h0a8.79,8.79,0,0,1,8.762-8.762H94.964a8.79,8.79,0,0,1,8.762,8.762h0A8.79,8.79,0,0,1,94.964,175.118ZM82.913,203.948H70.3a8.79,8.79,0,0,1-8.762-8.762h0a8.79,8.79,0,0,1,8.762-8.762H82.913a8.79,8.79,0,0,1,8.762,8.762h0A8.79,8.79,0,0,1,82.913,203.948Z" transform="translate(-17.44 -12.13)"/></clipPath><linearGradient id="d" x1="0.015" y1="0.946" x2="1.003" y2="0.038" gradientUnits="objectBoundingBox"><stop offset="0" stop-color="#1d66a7"/><stop offset="0.09" stop-color="#3375af"/><stop offset="0.67" stop-color="#c4d7e8"/><stop offset="0.92" stop-color="#fff"/></linearGradient></defs><g transform="translate(-1015 -1358)"><g transform="translate(1045 1383.021)"><g class="e" transform="matrix(1, 0, 0, 1, -30, -25.02)"><rect class="b" width="254" height="255" rx="50" transform="translate(30 25)"/></g></g><g transform="translate(1097.56 1402.87)"><g transform="translate(17.44 12.13)"><g class="c"><rect class="d" width="181.206" height="278.644" transform="translate(-44.813 -31.169)"/></g></g></g></g></svg>