<svg xmlns="http://www.w3.org/2000/svg" xmlns:xlink="http://www.w3.org/1999/xlink" width="314" height="315" viewBox="0 0 314 315"><defs><style>.a{fill:#fff;}.b{fill:#ef7907;}.c{filter:url(#a);}</style><filter id="a" x="0" y="0" width="314" height="315" filterUnits="userSpaceOnUse"><feOffset dy="5" input="SourceAlpha"/><feGaussianBlur stdDeviation="10" result="b"/><feFlood flood-color="#aaa" flood-opacity="0.4"/><feComposite operator="in" in2="b"/><feComposite in="SourceGraphic"/></filter></defs><g transform="translate(-593 -2133)"><g transform="translate(623 2157.762)"><g class="c" transform="matrix(1, 0, 0, 1, -30, -24.76)"><rect class="a" width="254" height="255" rx="50" transform="translate(30 25)"/></g></g><g transform="translate(680 2214)"><path class="b" d="M100.689,0H38.562A38.57,38.57,0,0,0,0,38.562v66.193a38.56,38.56,0,0,0,38.562,38.562h5.556S4.984,133.289,20.042,83.1c0,0,7.694,14.726,21.08,11.715S47.04,55.336,30.371,38.939c0,0,17.783-.663,34.18,13.717,0,0-10.043-37.478,11.383-44.51,0,0-.663,45.172,25.1,68.768,0,0,6.43-8.056-9.034-32.961V43.11s62.564,62.067,9.05,100.208A38.581,38.581,0,0,0,139.3,104.755V38.562A38.56,38.56,0,0,0,100.735,0Z"/><path class="b" d="M79.944,81.822H48.067q.384,5.443,3.554,8.086c2.123,1.762,5.029,2.65,8.763,2.65a19.1,19.1,0,0,0,5.8-1.295,24.114,24.114,0,0,0,7.182-4.1l6.686,8.779a34.613,34.613,0,0,1-10.3,5.933,34.773,34.773,0,0,1-11.685,1.867q-11.835,0-18.37-6.746Q33.168,90.27,33.16,78.193c0-8.041,2.3-14.53,6.911-19.56A22.726,22.726,0,0,1,57.583,51.09c7.062,0,12.2,2.093,16.277,6.294s6.113,10.3,6.113,18.31v6.128ZM65.955,72.306q0-5.827-2.123-8.312c-1.415-1.656-3.539-2.469-6.369-2.469a8.254,8.254,0,0,0-6.279,2.891,13.744,13.744,0,0,0-3.222,7.89H65.955Z" transform="translate(16.771 25.839)"/></g></g></svg>