<svg xmlns="http://www.w3.org/2000/svg" xmlns:xlink="http://www.w3.org/1999/xlink" width="316" height="315" viewBox="0 0 316 315"><defs><style>.a{fill:#fff;}.b{fill:#4c2366;}.c{filter:url(#a);}</style><filter id="a" x="0" y="0" width="316" height="315" filterUnits="userSpaceOnUse"><feOffset dy="5" input="SourceAlpha"/><feGaussianBlur stdDeviation="10" result="b"/><feFlood flood-color="#aaa" flood-opacity="0.4"/><feComposite operator="in" in2="b"/><feComposite in="SourceGraphic"/></filter></defs><g transform="translate(-169 -1358)"><g class="c" transform="matrix(1, 0, 0, 1, 169, 1358)"><rect class="a" width="256" height="255" rx="50" transform="translate(30 25)"/></g><path class="b" d="M143.105,40.8H4.083A4.1,4.1,0,0,1,.234,38.094,4.056,4.056,0,0,1,1.5,33.566L41.388.925A4.09,4.09,0,0,1,43.972,0h59.243A4.09,4.09,0,0,1,105.8.925l39.89,32.641a4.075,4.075,0,0,1-2.584,7.235Zm-127.6-8.16H131.681L101.76,8.16H45.428Z" transform="translate(253.007 1428.005)"/><path class="b" d="M73.589,155.571a4.079,4.079,0,0,1-3.563-2.081L.529,30.081a4.083,4.083,0,1,1,7.113-4.012L77.153,149.492a4.089,4.089,0,0,1-3.55,6.093Z" transform="translate(253.011 1436.644)"/><path class="b" d="M55.188,155.568a3.97,3.97,0,0,1-2-.53,4.09,4.09,0,0,1-1.55-5.563l69.511-123.4a4.083,4.083,0,1,1,7.113,4.012l-69.511,123.4A4.079,4.079,0,0,1,55.188,155.568Z" transform="translate(271.413 1436.647)"/><path class="b" d="M63.029,164.211a4.072,4.072,0,0,1-4-3.318L29.409,4.843A4.084,4.084,0,1,1,37.433,3.32L67.055,159.37a4.082,4.082,0,0,1-3.25,4.774,3.687,3.687,0,0,1-.762.068Z" transform="translate(263.572 1428.003)"/><path class="b" d="M55.2,164.211a4.8,4.8,0,0,1-.762-.068,4.082,4.082,0,0,1-3.25-4.774L80.8,3.32a4.084,4.084,0,1,1,8.024,1.523L59.2,160.893a4.072,4.072,0,0,1-4,3.318Z" transform="translate(271.413 1428.003)"/></g></svg>