<svg xmlns="http://www.w3.org/2000/svg" xmlns:xlink="http://www.w3.org/1999/xlink" width="314" height="315" viewBox="0 0 314 315"><defs><style>.a{fill:none;}.b{fill:#fff;}.c{clip-path:url(#c);}.d{fill:url(#d);}.e{filter:url(#a);}</style><filter id="a" x="0" y="0" width="314" height="315" filterUnits="userSpaceOnUse"><feOffset dy="5" input="SourceAlpha"/><feGaussianBlur stdDeviation="10" result="b"/><feFlood flood-color="#aaa" flood-opacity="0.4"/><feComposite operator="in" in2="b"/><feComposite in="SourceGraphic"/></filter><clipPath id="c"><path class="a" d="M50.17,158.969a17.506,17.506,0,0,0-3.575,1.66,4.956,4.956,0,0,1-7.313-5.69c3.009-9.338,7.988-13.751,11.836-19.624,5.4-8.243,16.213-12.42,15.5-24.986S56.7,99.7,56.7,99.7c-24.019.912-36.366-5.982-39.612-8.207C14.9,89.976,14.205,86.858,14,85a4.756,4.756,0,0,0-1.131-2.608c-1.787-2.061-4.924-6.383-1.313-7.86,4.249-1.733,18.657-9.192,21.9-10.87a5,5,0,0,0,1.2-.857,76.329,76.329,0,0,0,10.724-12.93c.693-1.058,1.222-1.97,1.641-2.717a4.85,4.85,0,0,1,3.447-2.426c15.393-2.5,23.764-7.623,26.919-9.976a4.857,4.857,0,0,0,1.842-2.918,31.68,31.68,0,0,1,4.012-10.76,4.953,4.953,0,0,1,7.988-.219c11.161,14.1,18.949,19.5,20.134,20.28a2.745,2.745,0,0,0,.31.182l6.018,3.356a4.843,4.843,0,0,1,1.806,1.733c3.629,5.854,20.39,33.5,20.39,44.226,0,12.019-2.024,29.855-21.083,45.248-19.04,15.393-62.008,20.937-68.628,23.107ZM43.622,183.28C37.75,194.022,40.376,200.3,40.376,200.3s1.222.2,17.836-9.119,31.806-.2,53.91-10.742c22.086-10.541,27.758-42.548,27.758-42.548-23.308,20.864-41.545,29.581-52.889,33.028s-37.5,1.623-43.369,12.365Z" transform="translate(-9.899 -18.939)"/></clipPath><radialGradient id="d" cx="0.5" cy="0.5" fx="0.33296337723731995" fy="0.422413170337677" r="0.436" gradientTransform="translate(-0.193) scale(1.386 1)" gradientUnits="objectBoundingBox"><stop offset="0" stop-color="#886b50"/><stop offset="0.27" stop-color="#7a6048"/><stop offset="0.78" stop-color="#554435"/><stop offset="0.9" stop-color="#4c3d31"/></radialGradient></defs><g transform="translate(-593 -1358)"><g transform="translate(623 1383.021)"><g class="e" transform="matrix(1, 0, 0, 1, -30, -25.02)"><rect class="b" width="254" height="255" rx="50" transform="translate(30 25)"/></g></g><g transform="translate(675.101 1401.061)"><g transform="translate(9.899 18.939)"><g class="c"><rect class="d" width="180.753" height="250.458" transform="translate(-18.053 -34.541)"/></g></g></g></g></svg>