<svg xmlns="http://www.w3.org/2000/svg" xmlns:xlink="http://www.w3.org/1999/xlink" width="314" height="315" viewBox="0 0 314 315"><defs><style>.a{fill:#fff;}.b{fill:url(#c);}.c{filter:url(#a);}</style><filter id="a" x="0" y="0" width="314" height="315" filterUnits="userSpaceOnUse"><feOffset dy="5" input="SourceAlpha"/><feGaussianBlur stdDeviation="10" result="b"/><feFlood flood-color="#aaa" flood-opacity="0.4"/><feComposite operator="in" in2="b"/><feComposite in="SourceGraphic"/></filter><linearGradient id="c" x1="0.053" y1="0.261" x2="0.975" y2="0.753" gradientUnits="objectBoundingBox"><stop offset="0.39" stop-color="#eb6e2d"/><stop offset="0.46" stop-color="#db6539"/><stop offset="0.71" stop-color="#a34765"/><stop offset="0.9" stop-color="#813481"/><stop offset="1" stop-color="#742d8c"/></linearGradient></defs><g transform="translate(-1231 -1746)"><g class="c" transform="matrix(1, 0, 0, 1, 1231, 1746)"><path class="a" d="M50,0H204a50,50,0,0,1,50,50V205a50,50,0,0,1-50,50H50A50,50,0,0,1,0,205V50A50,50,0,0,1,50,0Z" transform="translate(30 25)"/></g><g transform="translate(1315 1825)"><path class="b" d="M73.434,0a73.434,73.434,0,1,0,73.434,73.434A73.427,73.427,0,0,0,73.434,0Zm50.772,113.495H104.169l-29.6-51.26a1.313,1.313,0,0,0-2.282,0l-29.6,51.26H22.649a1.323,1.323,0,0,1-1.148-1.979l33.887-58.7L39.573,61.945a3.96,3.96,0,0,1-5.936-3.43V24.034a3.96,3.96,0,0,1,5.936-3.43L65.387,35.51l6.886-11.925a1.313,1.313,0,0,1,2.282,0L81.441,35.51,107.255,20.6a3.96,3.96,0,0,1,5.936,3.43V58.515a3.96,3.96,0,0,1-5.936,3.43L91.44,52.816l33.888,58.7a1.323,1.323,0,0,1-1.148,1.979Z"/></g></g></svg>