<svg xmlns="http://www.w3.org/2000/svg" xmlns:xlink="http://www.w3.org/1999/xlink" width="315" height="315" viewBox="0 0 315 315"><defs><style>.a{fill:#fff;}.b{fill:#352063;}.c{fill:#8e67ad;}.d{filter:url(#a);}</style><filter id="a" x="0" y="0" width="315" height="315" filterUnits="userSpaceOnUse"><feOffset dy="5" input="SourceAlpha"/><feGaussianBlur stdDeviation="10" result="b"/><feFlood flood-color="#aaa" flood-opacity="0.4"/><feComposite operator="in" in2="b"/><feComposite in="SourceGraphic"/></filter></defs><g transform="translate(-1014 -2133)"><g transform="translate(1044 2157.979)"><g class="d" transform="matrix(1, 0, 0, 1, -30, -24.98)"><rect class="a" width="255" height="255" rx="50" transform="translate(30 25)"/></g></g><g transform="translate(1102 2216)"><circle class="b" cx="25.5" cy="25.5" r="25.5" transform="translate(88 88)"/><circle class="b" cx="25.5" cy="25.5" r="25.5"/><path class="c" d="M107.409,0A31.584,31.584,0,0,0,75.818,31.591,44.222,44.222,0,0,1,31.591,75.818a31.591,31.591,0,1,0,31.591,31.591,44.222,44.222,0,0,1,44.227-44.227,31.591,31.591,0,0,0,0-63.182Z"/></g></g></svg>