<svg width="50" height="50" viewBox="0 0 50 50" fill="none" xmlns="http://www.w3.org/2000/svg">
<rect width="50" height="50" rx="10.4167" fill="black"/>
<rect width="50" height="50" rx="10.4167" fill="url(#paint0_radial_308_529)" fill-opacity="0.2"/>
<path d="M39.4519 23.665L39.4507 23.6644L26.3269 10.5321C25.6189 9.82241 24.3799 9.82302 23.6743 10.5315L10.5481 23.665C10.1953 24.0199 10 24.4908 10 24.9909C10 25.4917 10.1953 25.9632 10.5493 26.3174L23.6731 39.4497C24.0271 39.8046 24.4983 40 25 40C25.5017 40 25.9729 39.8046 26.3257 39.4503L39.4507 26.3174C39.8047 25.9632 40 25.4917 40 24.9909C40 24.4908 39.8047 24.0199 39.4519 23.665Z" fill="#EF473B"/>
<path opacity="0.1" d="M39.6017 25.8624L26.34 39.1321C25.9836 39.49 25.5074 39.6875 25.0005 39.6875C24.4936 39.6875 24.0175 39.49 23.6598 39.1315L10.3993 25.8624C10.2444 25.7072 10.126 25.5269 10.0342 25.3345C10.1024 25.7045 10.2783 26.0457 10.5499 26.3174L23.6736 39.4497C24.0276 39.8045 24.4988 40 25.0005 40C25.5022 40 25.9734 39.8045 26.3262 39.4503L39.4512 26.3174C39.7227 26.0457 39.8988 25.7045 39.967 25.3345C39.8752 25.5269 39.7567 25.7072 39.6017 25.8624Z" fill="#010101"/>
<path d="M31.2501 22.5C30.7815 22.5 30.3476 22.6376 29.9724 22.8629L27.1373 20.0278C27.3625 19.6526 27.5001 19.2187 27.5001 18.75C27.5001 17.3712 26.3783 16.25 25.0001 16.25C24.5378 16.25 24.1098 16.3847 23.7378 16.6045L20.6707 13.5369L19.7871 14.4209L22.8542 17.4884C22.6348 17.8601 22.5001 18.2879 22.5001 18.75C22.5001 19.9117 23.3001 20.8817 24.3751 21.1612V28.8388C23.3001 29.1183 22.5001 30.0883 22.5001 31.25C22.5001 32.6288 23.6219 33.75 25.0001 33.75C26.3783 33.75 27.5001 32.6288 27.5001 31.25C27.5001 30.0883 26.7001 29.1183 25.6251 28.8388V21.1612C25.8461 21.1037 26.0533 21.0164 26.2462 20.9043L29.0958 23.7539C28.8818 24.1222 28.7501 24.5441 28.7501 25C28.7501 26.3788 29.8719 27.5 31.2501 27.5C32.6283 27.5 33.7501 26.3788 33.7501 25C33.7501 23.6212 32.6283 22.5 31.2501 22.5Z" fill="white"/>
<path opacity="0.2" d="M10.5481 23.9775L23.6743 10.844C24.3799 10.1355 25.6189 10.1349 26.3269 10.8446L39.4507 23.9769L39.4519 23.9775C39.7673 24.2948 39.9481 24.7066 39.9847 25.1473C39.9891 25.0949 40 25.044 40 24.9909C40 24.4908 39.8047 24.0199 39.4519 23.665L39.4507 23.6644L26.3269 10.5321C25.6189 9.82241 24.3799 9.82302 23.6743 10.5315L10.5481 23.665C10.1953 24.0199 10 24.4908 10 24.9909C10 25.044 10.0109 25.0949 10.0153 25.1471C10.052 24.7064 10.2328 24.2947 10.5481 23.9775Z" fill="white"/>
<path d="M33.1857 23.438C33.5329 23.8673 33.7497 24.4061 33.7497 25C33.7497 26.3788 32.6279 27.5 31.2497 27.5C29.8715 27.5 28.7497 26.3788 28.7497 25C28.7497 24.5441 28.8814 24.1222 29.0954 23.7539L26.2458 20.9043C26.0529 21.0164 25.8456 21.1037 25.6247 21.1612V28.8388C26.6997 29.1183 27.4997 30.0883 27.4997 31.25C27.4997 32.6288 26.3779 33.75 24.9997 33.75C24.3604 33.75 23.7824 33.5017 23.3398 33.1053L28.0046 37.7701L37.7583 28.0105L33.1857 23.438ZM27.1368 20.0278L29.9719 22.8629C30.3472 22.6376 30.7811 22.5 31.2497 22.5C31.8436 22.5 32.3825 22.7169 32.812 23.0642L26.9649 17.217L26.9618 17.2195C27.2936 17.6438 27.4997 18.1708 27.4997 18.75C27.4997 19.2187 27.3621 19.6526 27.1368 20.0278Z" fill="url(#paint1_linear_308_529)"/>
<path d="M39.4519 23.665L39.4507 23.6644L26.3269 10.5321C25.6189 9.82241 24.3799 9.82302 23.6743 10.5315L10.5481 23.665C10.1953 24.0199 10 24.4908 10 24.9909C10 25.4917 10.1953 25.9632 10.5493 26.3174L23.6731 39.4497C24.0271 39.8046 24.4983 40 25 40C25.5017 40 25.9729 39.8046 26.3257 39.4503L39.4507 26.3174C39.8047 25.9632 40 25.4917 40 24.9909C40 24.4908 39.8047 24.0199 39.4519 23.665Z" fill="url(#paint2_linear_308_529)"/>
<defs>
<radialGradient id="paint0_radial_308_529" cx="0" cy="0" r="1" gradientUnits="userSpaceOnUse" gradientTransform="translate(25) rotate(90) scale(50)">
<stop stop-color="white"/>
<stop offset="1" stop-color="#999999" stop-opacity="0.1"/>
</radialGradient>
<linearGradient id="paint1_linear_308_529" x1="22.0863" y1="22.0951" x2="32.8829" y2="32.8918" gradientUnits="userSpaceOnUse">
<stop stop-color="#010101" stop-opacity="0.1"/>
<stop offset="1" stop-color="#010101" stop-opacity="0"/>
</linearGradient>
<linearGradient id="paint2_linear_308_529" x1="12.5173" y1="19.1749" x2="37.4792" y2="30.8148" gradientUnits="userSpaceOnUse">
<stop stop-color="white" stop-opacity="0.2"/>
<stop offset="1" stop-color="white" stop-opacity="0"/>
</linearGradient>
</defs>
</svg>
