<svg width="50" height="50" viewBox="0 0 50 50" fill="none" xmlns="http://www.w3.org/2000/svg">
<rect width="50" height="50" rx="10.4167" fill="black"/>
<rect width="50" height="50" rx="10.4167" fill="url(#paint0_radial_308_489)" fill-opacity="0.2"/>
<path d="M25 28.0528C26.6951 28.0528 28.0693 26.6787 28.0693 24.9835C28.0693 23.2884 26.6951 21.9142 25 21.9142C23.3048 21.9142 21.9307 23.2884 21.9307 24.9835C21.9307 26.6787 23.3048 28.0528 25 28.0528Z" fill="#61DAFB"/>
<path d="M24.9999 36.2706C27.4091 38.6139 29.7853 40 31.6995 40C32.3266 40 32.9206 39.868 33.4157 39.571C35.1319 38.5809 35.7589 36.1056 35.1649 32.5743C35.0659 31.9472 34.9338 31.3201 34.7688 30.6601C35.4289 30.462 36.023 30.264 36.617 30.066C39.9503 28.7789 41.7985 26.9967 41.7985 25.0495C41.7985 23.0693 39.9503 21.2871 36.617 20.033C36.023 19.802 35.4289 19.604 34.7688 19.4389C34.9338 18.7789 35.0659 18.1518 35.1649 17.5248C35.7259 13.9274 35.0989 11.4191 33.3827 10.429C32.8876 10.132 32.2936 10 31.6665 10C29.7853 10 27.3761 11.3861 24.9669 13.7294C22.5906 11.3861 20.2144 10 18.3002 10C17.6731 10 17.0791 10.132 16.584 10.429C14.8678 11.4191 14.2408 13.8944 14.8348 17.4257C14.9338 18.0528 15.0659 18.6799 15.2309 19.3399C14.5708 19.538 13.9767 19.736 13.3827 19.934C10.0494 21.2211 8.20117 23.0033 8.20117 24.9505C8.20117 26.9307 10.0494 28.7129 13.3827 29.967C13.9767 30.198 14.5708 30.396 15.2309 30.5611C15.0659 31.2211 14.9338 31.8482 14.8348 32.4752C14.2738 36.0066 14.9008 38.5149 16.584 39.4719C17.0791 39.769 17.6731 39.901 18.3002 39.901C20.2144 39.967 22.5906 38.5809 24.9999 36.2706ZM23.1517 31.8152C23.7457 31.8482 24.3728 31.8482 24.9999 31.8482C25.6269 31.8482 26.254 31.8482 26.848 31.8152C26.254 32.6073 25.6269 33.3333 24.9999 34.0264C24.3728 33.3333 23.7457 32.6073 23.1517 31.8152ZM19.0593 28.4158C19.3893 28.9769 19.6863 29.505 20.0494 30.033C19.0263 29.901 18.0692 29.736 17.1451 29.538C17.4421 28.6469 17.7721 27.7228 18.1682 26.7987C18.4322 27.3267 18.7292 27.8878 19.0593 28.4158ZM17.1451 20.462C18.0692 20.264 19.0263 20.099 20.0494 19.967C19.7193 20.495 19.3893 21.0231 19.0593 21.5842C18.7292 22.1452 18.4322 22.6733 18.1682 23.2343C17.7391 22.2772 17.4091 21.3531 17.1451 20.462ZM18.9602 24.9835C19.3893 24.0924 19.8513 23.2013 20.3794 22.3102C20.8744 21.4521 21.4355 20.5941 21.9966 19.736C22.9867 19.67 23.9768 19.637 24.9999 19.637C26.056 19.637 27.0461 19.67 28.0032 19.736C28.5972 20.5941 29.1253 21.4521 29.6203 22.3102C30.1484 23.2013 30.6104 24.0924 31.0395 24.9835C30.6104 25.8746 30.1484 26.7657 29.6203 27.6568C29.1253 28.5149 28.5642 29.3729 28.0032 30.231C27.0131 30.297 26.023 30.33 24.9999 30.33C23.9437 30.33 22.9536 30.297 21.9966 30.231C21.4025 29.3729 20.8744 28.5149 20.3794 27.6568C19.8513 26.7657 19.3893 25.8746 18.9602 24.9835ZM31.8645 23.2013L30.9735 21.5512C30.6434 20.9901 30.3464 20.462 29.9834 19.934C31.0065 20.066 31.9636 20.231 32.8876 20.429C32.5906 21.3531 32.2606 22.2772 31.8645 23.2013ZM31.8645 26.7657C32.2606 27.6898 32.5906 28.6139 32.8876 29.505C31.9636 29.703 31.0065 29.868 29.9834 30C30.3134 29.4719 30.6434 28.9439 30.9735 28.3828C31.2705 27.8878 31.5675 27.3267 31.8645 26.7657ZM32.6236 38.2178C32.3596 38.3828 32.0296 38.4488 31.6665 38.4488C30.0494 38.4488 28.0362 37.1287 26.056 35.1485C27.0131 34.1254 27.9371 32.9703 28.8612 31.6832C30.4124 31.5512 31.8975 31.3201 33.2837 30.9901C33.4487 31.5842 33.5477 32.1782 33.6467 32.7723C34.1088 35.5776 33.7457 37.5908 32.6236 38.2178ZM34.3398 20.8251C38.0362 21.8812 40.2474 23.4984 40.2474 24.9835C40.2474 26.2706 38.7292 27.5578 36.056 28.5809C35.5279 28.7789 34.9338 28.9769 34.3398 29.1419C33.9107 27.7888 33.3827 26.4026 32.7226 24.9835C33.3827 23.5644 33.9438 22.1782 34.3398 20.8251ZM31.6995 11.5182C32.0626 11.5182 32.3596 11.5842 32.6566 11.7492C33.7457 12.3762 34.1418 14.3564 33.6797 17.1947C33.5807 17.7558 33.4487 18.3498 33.3167 18.9769C31.9305 18.6799 30.4454 18.4488 28.8942 18.2838C28.0032 16.9967 27.0461 15.8416 26.089 14.8185C28.0692 12.8713 30.0824 11.5182 31.6995 11.5182ZM26.848 18.1518C26.254 18.1188 25.6269 18.1188 24.9999 18.1188C24.3728 18.1188 23.7457 18.1188 23.1517 18.1518C23.7457 17.3597 24.3728 16.6337 24.9999 15.9406C25.6269 16.6337 26.254 17.3927 26.848 18.1518ZM17.3761 11.7492C17.6401 11.5842 17.9701 11.5182 18.3332 11.5182C19.9503 11.5182 21.9635 12.8383 23.9437 14.8185C22.9867 15.8416 22.0626 16.9967 21.1385 18.2838C19.5873 18.4158 18.1022 18.6469 16.716 18.9769C16.551 18.3828 16.452 17.7888 16.353 17.1947C15.8909 14.3894 16.254 12.4092 17.3761 11.7492ZM15.6599 29.1419C11.9635 28.0858 9.75233 26.4686 9.75233 24.9835C9.75233 23.6964 11.2705 22.4092 13.9437 21.3861C14.4718 21.1881 15.0659 20.9901 15.6599 20.8251C16.089 22.1782 16.617 23.5644 17.2771 24.9835C16.617 26.4026 16.056 27.8218 15.6599 29.1419ZM16.353 32.7723C16.452 32.2112 16.584 31.6172 16.716 30.9901C18.1022 31.2871 19.5873 31.5182 21.1385 31.6832C22.0296 32.9703 22.9867 34.1254 23.9437 35.1485C21.9635 37.0957 19.9503 38.4488 18.3332 38.4488C17.9701 38.4488 17.6731 38.3828 17.3761 38.2178C16.254 37.5908 15.8909 35.5776 16.353 32.7723Z" fill="#61DAFB"/>
<defs>
<radialGradient id="paint0_radial_308_489" cx="0" cy="0" r="1" gradientUnits="userSpaceOnUse" gradientTransform="translate(25) rotate(90) scale(50)">
<stop stop-color="white"/>
<stop offset="1" stop-color="#999999" stop-opacity="0.1"/>
</radialGradient>
</defs>
</svg>
